# xmcd
#
# Track frame offsets: 
#        150
#        15611
#        32743
#        51123
#        68356
#        89790
#        109421
#        128812
#        146767
#        165696
#        186299
#        210290
#        229869
#        251722
#        269700
#        289823
#
# Disc length: 4086 seconds
#
# Revision: 1
# Processed by: cddbd v1.5.2PL0 Copyright (c) Steve Scherf et al.
# Submitted via: ExactAudioCopy v0.95b4
#
DISCID=f10ff410
DTITLE=Beyond - Best of Millennium[CD2]
DYEAR=1988
DGENRE=Native American
TTITLE0=喜欢你
TTITLE1=冷夜雨
TTITLE2=原谅我今天
TTITLE3=是错也再不分
TTITLE4=谁伴我闯荡
TTITLE5=愿我能
TTITLE6=曾是拥有
TTITLE7=未曾后悔
TTITLE8=无泪的遗憾
TTITLE9=怀念你
TTITLE10=灰色轨迹
TTITLE11=报答一生
TTITLE12=真的爱你
TTITLE13=再见理想
TTITLE14=光辉岁月
TTITLE15=AMANI
EXTD=ID3G: 64
EXTT0=
EXTT1=
EXTT2=
EXTT3=
EXTT4=
EXTT5=
EXTT6=
EXTT7=
EXTT8=
EXTT9=
EXTT10=
EXTT11=
EXTT12=
EXTT13=
EXTT14=
EXTT15=
PLAYORDER=
